<?xml version="1.0" standalone="no"?>
<!DOCTYPE svg PUBLIC "-//W3C//DTD SVG 20010904//EN"
 "http://www.w3.org/TR/2001/REC-SVG-20010904/DTD/svg10.dtd">
<svg version="1.0" xmlns="http://www.w3.org/2000/svg"
 width="600.000000pt" height="600.000000pt" viewBox="0 0 600.000000 600.000000"
 preserveAspectRatio="xMidYMid meet">
<metadata>
Created by potrace 1.14, written by Peter Selinger 2001-2017
</metadata>
<g transform="translate(0.000000,600.000000) scale(0.100000,-0.100000)"
fill="#000000" stroke="none">
<path d="M0 3000 l0 -3000 3000 0 3000 0 0 3000 0 3000 -3000 0 -3000 0 0
-3000z m2105 1793 c7 -18 303 -846 427 -1193 38 -107 71 -196 73 -198 2 -3 46
16 97 41 158 77 155 77 842 77 l606 0 0 -1075 0 -1075 -235 0 -235 0 -2 402
-3 403 -330 3 c-482 4 -455 23 -455 -332 0 -257 -9 -340 -43 -401 -41 -72 -57
-76 -299 -76 -117 0 -221 1 -231 1 -14 0 -10 8 17 35 61 60 68 103 75 425 6
267 8 288 29 334 12 28 34 64 47 82 28 37 116 84 157 84 42 0 34 15 -18 35
-57 22 -149 107 -192 178 -18 30 -68 157 -111 283 -43 126 -82 237 -86 247 -7
16 -35 17 -443 15 l-435 -3 -22 -60 c-11 -33 -46 -129 -76 -212 l-54 -153
-242 0 -243 0 11 28 c9 24 120 315 214 562 18 47 64 168 103 270 112 295 378
992 438 1148 l56 142 278 0 c255 0 278 -1 285 -17z m2885 -1594 l0 -311 -65
-447 c-36 -245 -67 -452 -70 -459 -4 -10 -29 -13 -107 -10 l-103 3 -67 465
-67 465 -1 303 0 302 240 0 240 0 0 -311z m0 -1624 l0 -215 -237 2 -238 3 -3
213 -3 212 241 0 240 0 0 -215z"/>
<path d="M1685 3998 c-60 -167 -127 -356 -150 -420 l-42 -118 303 0 303 0 -19
53 c-10 28 -38 108 -63 177 -25 69 -82 229 -127 355 -45 127 -85 236 -89 243
-5 8 -51 -109 -116 -290z"/>
<path d="M3100 3151 c-93 -7 -156 -37 -209 -97 -51 -58 -71 -119 -71 -213 1
-122 49 -203 155 -259 l50 -27 325 0 325 0 0 300 0 300 -250 1 c-137 0 -284
-2 -325 -5z"/>
</g>
</svg>
